<?xml version="1.0" encoding="UTF-8"?>
<svg version="1.1" xmlns="http://www.w3.org/2000/svg" width="1024" height="1024">
<path d="M0 0 C337.92 0 675.84 0 1024 0 C1024 337.92 1024 675.84 1024 1024 C686.08 1024 348.16 1024 0 1024 C0 686.08 0 348.16 0 0 Z " fill="#0D0D0D" transform="translate(0,0)"/>
<path d="M0 0 C3.94096412 2.65937249 5.61785181 3.91900835 7.21650696 8.44116211 C7.51986214 10.37100952 7.51986214 10.37100952 7.8293457 12.33984375 C7.94163419 13.04133041 8.05392267 13.74281708 8.16961384 14.46556091 C9.26752744 21.80124801 9.5715041 29.1533257 9.73046875 36.5625 C9.76991329 37.97455939 9.81048981 39.38658755 9.85212708 40.79858398 C9.95697865 44.4543611 10.04680732 48.11034603 10.13311768 51.76660156 C10.22455377 55.52174133 10.33073745 59.27646392 10.43554688 63.03125 C10.63783859 70.35384203 10.82420391 77.67671875 11 85 C11.48224344 82.77648304 11.96289016 80.55261974 12.44287109 78.32861328 C12.71070404 77.09023712 12.97853699 75.85186096 13.25448608 74.57595825 C14.20290763 70.02672615 14.97466318 65.47522403 15.625 60.875 C15.74979736 60.00335205 15.87459473 59.1317041 16.00317383 58.23364258 C17.27117502 48.85278972 17.70549557 39.45460784 18 30 C20.12602765 32.01441407 21.77960372 34.01390575 23.34765625 36.484375 C23.78303711 37.165 24.21841797 37.845625 24.66699219 38.546875 C25.35776855 39.63742187 25.35776855 39.63742187 26.0625 40.75 C27.04742962 42.2869376 28.03312243 43.82338634 29.01953125 45.359375 C29.51662598 46.13474609 30.0137207 46.91011719 30.52587891 47.70898438 C38.57369988 60.24947327 38.57369988 60.24947327 47.625 72.0703125 C49.1933662 74.27137189 50.08766344 76.46475705 51 79 C50.0821875 79.4125 49.164375 79.825 48.21875 80.25 C36.65353449 85.61798784 28.48012157 92.11559434 23 104 C20.05050089 112.31899848 20.05050089 112.31899848 19 121 C19.20753906 120.39414062 19.41507813 119.78828125 19.62890625 119.1640625 C24.82937916 105.02051692 34.41200263 93.68750968 48 87 C52.74810358 85.05819853 57.16783695 84.6136394 62.25 84.625 C62.99854248 84.62661133 63.74708496 84.62822266 64.51831055 84.62988281 C71.68613523 84.78791115 77.92377983 86.08848247 83.26171875 91.140625 C83.83535156 91.75421875 84.40898438 92.3678125 85 93 C84.27296875 93.01417969 83.5459375 93.02835937 82.796875 93.04296875 C72.74750535 93.51966962 63.00227016 96.11126075 55.5234375 103.20703125 C48.33156195 111.67131556 44.42132398 121.13849979 44.5625 132.1875 C44.56934814 133.01757568 44.57619629 133.84765137 44.58325195 134.70288086 C44.77068837 141.95954851 46.2025518 148.28244346 49 155 C49.350625 155.87914062 49.70125 156.75828125 50.0625 157.6640625 C55.08378565 168.92708518 64.54421474 178.3745899 75.8125 183.375 C83.87067441 186.13715043 92.60500721 185.31318108 101 185 C101.30756951 194.17582357 100.47749947 202.95185907 99 212 C98.88172852 212.76908691 98.76345703 213.53817383 98.64160156 214.33056641 C96.612527 227.22525783 92.97271273 238.39846634 87 250 C86.6695166 250.64727051 86.3390332 251.29454102 85.99853516 251.96142578 C75.72327807 271.75859194 58.82997974 290.02777929 38 299 C37.01 299 36.02 299 35 299 C34.34 294.05 33.68 289.1 33 284 C34.08796875 283.38253906 35.1759375 282.76507812 36.296875 282.12890625 C48.72393434 274.99976571 60.18261512 267.59700074 70 257 C69.33871094 257.54011719 68.67742187 258.08023437 67.99609375 258.63671875 C40.91239669 280 40.91239669 280 32 280 C30.73568993 276.2070698 30.32730694 273.98081021 31 270 C33.64057797 267.61268251 36.70865094 266.15097238 39.875 264.5625 C41.63348595 263.61543574 43.38873594 262.66233732 45.140625 261.703125 C45.98560547 261.24357422 46.83058594 260.78402344 47.70117188 260.31054688 C52.24286186 257.72135913 56.10202205 254.45208379 60 251 C60.73992187 250.401875 61.47984375 249.80375 62.2421875 249.1875 C69.86557424 242.8566598 75.86316971 234.99119958 81.12109375 226.625 C81.74113281 225.75875 82.36117187 224.8925 83 224 C85.75 223.625 85.75 223.625 88 224 C72.25873744 206.68461118 46.42465734 198.53826882 24 195 C22.10314453 194.69255859 22.10314453 194.69255859 20.16796875 194.37890625 C-15.86865119 189.06354899 -55.01710484 195.03729149 -85.24609375 216.28125 C-89.75505312 219.59405656 -89.75505312 219.59405656 -93 224 C-91.68 223.67 -90.36 223.34 -89 223 C-88.21689453 224.19882812 -88.21689453 224.19882812 -87.41796875 225.421875 C-81.93848942 233.65815812 -75.9427477 240.95807019 -69 248 C-68.22140625 248.79148437 -67.4428125 249.58296875 -66.640625 250.3984375 C-58.07931799 258.58626467 -47.64629144 264.87523238 -37 270 C-36.875 276.625 -36.875 276.625 -38 280 C-52.72197333 276.31950667 -64.9461823 265.95600704 -76 256 C-65.85567397 268.96219437 -52.57053044 276.86341366 -38 284 C-38.28346278 285.91789713 -38.5771028 287.83429183 -38.875 289.75 C-39.03742188 290.81734375 -39.19984375 291.8846875 -39.3671875 292.984375 C-39.93223882 295.67708871 -40.63422914 297.63572439 -42 300 C-70.70115095 285.34409313 -90.42518416 261.89053197 -100.79614258 231.48242188 C-103.46329044 223.13082881 -104.96418039 214.69072529 -106 206 C-106.13019531 204.93910156 -106.26039063 203.87820313 -106.39453125 202.78515625 C-107.01849304 196.85335947 -107.11636457 190.96045175 -107 185 C-106.21625 185.165 -105.4325 185.33 -104.625 185.5 C-91.66680647 187.28733704 -81.45207482 184.15411779 -70.90234375 176.47265625 C-60.53936272 167.98659279 -52.13403483 154.15698738 -50.76293945 140.66772461 C-50.03704109 127.00258867 -50.80379896 116.03054247 -59.75 105.0625 C-68.57812794 95.90248755 -78.79849217 93.95011741 -91 93 C-87.35191722 88.35698556 -82.58985217 86.40824039 -77 85 C-63.53307998 83.53937961 -52.53639287 86.5453208 -42 95 C-34.07622281 101.72727463 -29.39045762 108.72479484 -25 118 C-27.19772913 104.81362524 -33.62482878 93.00719126 -44.625 85.1171875 C-48.62587547 82.65236243 -52.61101199 80.68088903 -57 79 C-55.68733024 76.22025129 -54.22239702 73.80006951 -52.3828125 71.33984375 C-51.86396484 70.63778809 -51.34511719 69.93573242 -50.81054688 69.21240234 C-49.97620117 68.08632568 -49.97620117 68.08632568 -49.125 66.9375 C-41.73688274 56.84828376 -35.07823921 46.34831749 -28.58203125 35.66894531 C-28.13214844 34.93514648 -27.68226563 34.20134766 -27.21875 33.4453125 C-26.81591797 32.78289551 -26.41308594 32.12047852 -25.99804688 31.43798828 C-25.66869141 30.96345215 -25.33933594 30.48891602 -25 30 C-24.67 30 -24.34 30 -24 30 C-23.9498877 30.69859131 -23.89977539 31.39718262 -23.84814453 32.11694336 C-22.3842146 57.0204771 -22.3842146 57.0204771 -17.9296875 81.4921875 C-17.74398193 82.21978271 -17.55827637 82.94737793 -17.36694336 83.69702148 C-16.91498247 85.46562726 -16.45802372 87.23295464 -16 89 C-16.00999275 88.02758362 -16.00999275 88.02758362 -16.02018738 87.03552246 C-16.08768504 80.15459265 -16.13226286 73.27375991 -16.16479492 66.39257812 C-16.17968123 63.84045581 -16.19999683 61.28835812 -16.22631836 58.73632812 C-16.71684879 9.87565014 -16.71684879 9.87565014 -8.75 1.6875 C-5.38870618 -0.37511212 -3.87767078 -0.71222525 0 0 Z " fill="#F8F7F7" transform="translate(515,291)"/>
<path d="M0 0 C0.9237442 0.0028299 1.8474884 0.00565979 2.79922485 0.00857544 C5.73347226 0.01972071 8.6674082 0.04481485 11.6015625 0.0703125 C13.59765182 0.08034961 15.59374596 0.08947418 17.58984375 0.09765625 C22.46886899 0.11964153 27.34766304 0.15413233 32.2265625 0.1953125 C32.40106934 0.81567383 32.57557617 1.43603516 32.75537109 2.07519531 C39.60028184 25.72941147 52.48095805 45.20484015 70.2265625 62.1953125 C68.2265625 63.1953125 68.2265625 63.1953125 66.10131836 62.59716797 C63.115928 61.43589359 60.13480379 60.26872898 57.1640625 59.0703125 C56.04950684 58.62236328 54.93495117 58.17441406 53.78662109 57.71289062 C42.5474754 53.08658497 31.85999864 47.55182761 21.17285156 41.78369141 C17.38596123 39.74213452 13.58319568 37.73157102 9.77685547 35.7265625 C8.115231 34.85105215 6.45530758 33.97230335 4.79736328 33.08984375 C1.66490176 31.09892719 1.66490176 31.09892719 -1.7734375 30.1953125 C-1.15597656 30.72898437 -0.53851563 31.26265625 0.09765625 31.8125 C21.25063722 50.42197184 34.14699576 74.98271918 47.6015625 99.3828125 C48.17946533 100.41656006 48.75736816 101.45030762 49.3527832 102.51538086 C49.87573975 103.47581299 50.39869629 104.43624512 50.9375 105.42578125 C51.40462402 106.27551514 51.87174805 107.12524902 52.35302734 108.00073242 C53.2265625 110.1953125 53.2265625 110.1953125 52.2265625 113.1953125 C49.94140625 114.80078125 49.94140625 114.80078125 47.1640625 116.3828125 C46.24496094 116.91261719 45.32585937 117.44242188 44.37890625 117.98828125 C43.66863281 118.38660156 42.95835937 118.78492188 42.2265625 119.1953125 C43.5813487 118.90653721 44.93535552 118.61410533 46.2890625 118.3203125 C47.04316406 118.15789062 47.79726563 117.99546875 48.57421875 117.828125 C51.34918621 117.20170039 51.34918621 117.20170039 54.48828125 116.1484375 C66.537646 113.07629017 78.805479 114.59704719 89.64453125 120.515625 C96.16760443 124.51469499 102.23762565 130.00453688 105.2265625 137.1953125 C105.2265625 138.1853125 105.2265625 139.1753125 105.2265625 140.1953125 C100.2697153 140.39763279 95.75010716 139.99027632 90.8515625 139.1953125 C67.75717882 135.98197984 40.20399888 136.29788335 20.2890625 149.9453125 C13.1293534 155.544437 6.115908 163.07825637 4.94238281 172.46948242 C4.8240047 174.99007617 4.81162071 177.48482267 4.8515625 180.0078125 C4.85736328 180.88985352 4.86316406 181.77189453 4.86914062 182.68066406 C4.99262867 188.87107395 5.69809187 194.47615275 8.2265625 200.1953125 C0.38976672 195.94105193 -5.13923108 189.4105107 -8.4609375 181.1953125 C-9.08548828 179.679375 -9.08548828 179.679375 -9.72265625 178.1328125 C-13.36715489 167.9444743 -12.33308151 158.9213071 -8.21875 149.03515625 C-6.46741035 145.5940105 -4.80974869 143.5376097 -1.7734375 141.1953125 C-8.50069036 143.43773012 -13.18741947 149.1876673 -16.765625 155.10546875 C-19.31261511 160.387018 -20.12961532 165.18202295 -20.0859375 171.0078125 C-20.08537354 171.71123779 -20.08480957 172.41466309 -20.08422852 173.1394043 C-19.98534381 178.74739511 -18.79039279 183.02138371 -16.7734375 188.1953125 C-17.1034375 189.1853125 -17.4334375 190.1753125 -17.7734375 191.1953125 C-26.49767026 182.41945706 -31.79776215 172.46002088 -32.0859375 160.0078125 C-31.98182696 150.77320751 -28.95615151 143.53515797 -23.078125 136.43359375 C-9.97988965 123.71276518 4.69558704 121.75460655 22.2265625 121.1953125 C20.51931242 120.71230047 18.81070276 120.23409292 17.1015625 119.7578125 C16.15023437 119.49097656 15.19890625 119.22414063 14.21875 118.94921875 C11.25113056 118.11081393 11.25113056 118.11081393 8.21386719 117.96899414 C5.2265625 117.1953125 5.2265625 117.1953125 3.63427734 115.00341797 C3.23934082 114.03291504 2.8444043 113.06241211 2.4375 112.0625 C1.74648193 110.41109009 1.74648193 110.41109009 1.04150391 108.72631836 C0.32873291 106.91659546 0.32873291 106.91659546 -0.3984375 105.0703125 C-0.91188039 103.81253964 -1.42704925 102.55547012 -1.94384766 101.29907227 C-3.30835072 97.96023545 -4.6395864 94.60913299 -5.96118164 91.25311279 C-6.76685432 89.21199058 -7.58039156 87.17418305 -8.39648438 85.13720703 C-30.75107117 29.27184841 -30.75107117 29.27184841 -26.12109375 12.88671875 C-23.44016934 7.72047385 -18.58057879 3.38695653 -13.26074219 1.12866211 C-8.7633746 -0.07502287 -4.63256747 -0.05386767 0 0 Z " fill="#F9F8F8" transform="translate(371.7734375,520.8046875)"/>
<path d="M0 0 C5.65587346 -0.09958872 11.31122578 -0.17180596 16.96777344 -0.21972656 C18.88811139 -0.23972336 20.80838939 -0.26693006 22.72851562 -0.30175781 C45.3840766 -0.70211596 45.3840766 -0.70211596 53.47265625 6.0703125 C53.99730469 6.74835937 54.52195312 7.42640625 55.0625 8.125 C55.88427734 9.14980469 55.88427734 9.14980469 56.72265625 10.1953125 C61.03274494 16.28479561 59.45892573 26.2991219 58.57421875 33.43359375 C55.07571177 51.31246684 47.82077172 68.22326284 40.9375 85 C40.4200975 86.26201736 40.4200975 86.26201736 39.89224243 87.54953003 C28.33470922 115.66529078 28.33470922 115.66529078 26 118 C23.28972509 118.28648879 20.57910392 118.44835421 17.859375 118.62109375 C14.94985605 119.00664476 12.6656633 119.79850578 10 121 C11.66675781 121.07347656 11.66675781 121.07347656 13.3671875 121.1484375 C28.97647781 121.89692441 42.29831249 123.56958257 54.4375 134.6875 C61.75454641 142.82790832 64.82107058 150.9525268 64.57470703 161.77099609 C63.86275626 174.45744426 58.0558318 183.47686419 49 192 C49.2165625 191.2471875 49.433125 190.494375 49.65625 189.71875 C52.91761153 177.27725973 54.47609079 163.69874466 48 152 C44.46609844 146.86600257 40.90638581 143.30493105 35 141 C35.48210937 141.65226563 35.96421875 142.30453125 36.4609375 142.9765625 C37.09257813 143.85054687 37.72421875 144.72453125 38.375 145.625 C39.00148438 146.48351562 39.62796875 147.34203125 40.2734375 148.2265625 C45.23384453 156.19463715 45.24794261 166.2179345 43.3125 175.25 C40.1912054 184.16798457 35.8748001 194.00010208 27.0625 198.5 C26.381875 198.665 25.70125 198.83 25 199 C25.33 197.741875 25.66 196.48375 26 195.1875 C28.47436737 182.61843096 28.82840833 169.12680018 21.78515625 158.09765625 C13.085992 146.57441548 -3.20825606 141.08818658 -17 139 C-32.67011275 136.81228945 -49.20279359 137.18520325 -64.8203125 139.5625 C-67.60394386 139.94550579 -70.1970425 140.08461758 -73 140 C-72.60744757 133.71916117 -68.33675465 129.2414695 -63.98828125 125.0703125 C-58.49910957 120.47793547 -52.83454092 118.00192852 -46 116 C-45.35933594 115.80535156 -44.71867188 115.61070312 -44.05859375 115.41015625 C-35.75291584 113.75532479 -27.11958648 115.01699868 -19 117 C-17.29216291 117.37725357 -15.58384835 117.75235394 -13.875 118.125 C-12.59625 118.41375 -11.3175 118.7025 -10 119 C-13.63 116.69 -17.26 114.38 -21 112 C-19.58897889 107.76693666 -18.45139204 104.72609356 -16.3125 100.98046875 C-15.51972656 99.58393066 -15.51972656 99.58393066 -14.7109375 98.15917969 C-14.14632812 97.17852539 -13.58171875 96.19787109 -13 95.1875 C-12.41476562 94.16430664 -11.82953125 93.14111328 -11.2265625 92.08691406 C-10.04050592 90.01714175 -8.85173267 87.94892366 -7.66015625 85.88232422 C-6.22249616 83.38629259 -4.79665316 80.88406858 -3.375 78.37890625 C6.86996937 60.47050825 17.93432728 43.22025385 34 30 C31.93579294 31.01747529 29.87357984 32.03871396 27.8125 33.0625 C27.11906494 33.40611572 26.42562988 33.74973145 25.71118164 34.10375977 C20.86717174 36.5209069 16.06926616 39.01356828 11.2890625 41.5546875 C-0.34257302 47.72143764 -11.90726636 53.69605661 -24.1875 58.5 C-25.15502197 58.87954834 -26.12254395 59.25909668 -27.11938477 59.65014648 C-32.06327426 61.51059472 -32.06327426 61.51059472 -34 62 C-34.99 61.505 -34.99 61.505 -36 61 C-35.55011719 60.58492187 -35.10023438 60.16984375 -34.63671875 59.7421875 C-17.21111678 43.0499275 -6.51989207 23.06125897 0 0 Z " fill="#F9F9F9" transform="translate(620,521)"/>
<path d="M0 0 C1.25425781 0.00902344 2.50851562 0.01804687 3.80078125 0.02734375 C4.75339844 0.03894531 5.70601563 0.05054688 6.6875 0.0625 C6.7376123 1.26970703 6.78772461 2.47691406 6.83935547 3.72070312 C8.15185155 35.930905 8.15185155 35.930905 10.6875 68.0625 C11.00694559 65.87600348 11.3175281 63.68821241 11.625 61.5 C11.79902344 60.28183594 11.97304688 59.06367187 12.15234375 57.80859375 C13.76616202 44.64897425 13.94194731 31.3637216 14.25 18.125 C14.29333315 16.36262314 14.33695129 14.60025326 14.38085938 12.83789062 C14.4863472 8.57950016 14.58801797 4.32103482 14.6875 0.0625 C30.53616173 -0.39877563 30.53616173 -0.39877563 37.125 2.5625 C38.19621094 3.0265625 39.26742187 3.490625 40.37109375 3.96875 C41.13550781 4.3296875 41.89992188 4.690625 42.6875 5.0625 C40.6875 11.0625 40.6875 11.0625 39.89990234 13.10229492 C37.72353371 18.95969017 37.21851267 24.15281497 37.3125 30.375 C37.31830078 31.32777832 37.32410156 32.28055664 37.33007812 33.26220703 C37.46144757 40.61767973 38.39184818 47.68409797 39.60424805 54.92724609 C41.88077917 68.84787929 41.58616514 81.61507438 34.9375 94.4375 C28.94289923 101.43120089 23.18655528 106.15780196 13.9375 107.4453125 C4.95058285 107.98359139 -2.22725645 105.14941353 -9.22265625 99.52734375 C-10.87692094 97.80538537 -12.07601124 96.10522594 -13.3125 94.0625 C-13.79589844 93.29035156 -14.27929688 92.51820313 -14.77734375 91.72265625 C-21.090643 79.53326684 -18.98446544 64.31311519 -17.3125 51.125 C-14.37703812 29.88380027 -14.37703812 29.88380027 -20.21875 9.953125 C-21.3125 8.0625 -21.3125 8.0625 -21.3125 5.0625 C-19.91971983 4.41010842 -18.52310788 3.76589448 -17.125 3.125 C-16.34769531 2.76535156 -15.57039063 2.40570312 -14.76953125 2.03515625 C-9.8433081 0.08502976 -5.270496 -0.04925697 0 0 Z " fill="#F9F8F8" transform="translate(501.3125,533.9375)"/>
<path d="M0 0 C7.6725 -0.1546875 7.6725 -0.1546875 15.5 -0.3125 C17.89668945 -0.38078003 17.89668945 -0.38078003 20.34179688 -0.45043945 C27.95154414 -0.52471595 34.19536433 -0.54595848 40 5 C44.86121744 10.35980385 45.35407814 13.7720926 45.27734375 20.8828125 C44.82607948 25.95476866 43.3013933 29.93344275 39.46875 33.375 C37.31995028 34.8917998 35.67917338 36 33 36 C37.05305 42.47995229 41.21559828 48.82362401 45.71484375 55.00390625 C47 57 47 57 47 59 C42.269757 60.21270098 37.5630903 61.0756829 33 59 C29.47562328 55.46337278 26.98975554 51.25149742 24.52856445 46.93432617 C23.78932739 45.65585815 23.78932739 45.65585815 23.03515625 44.3515625 C22.6162915 43.56604004 22.19742676 42.78051758 21.76586914 41.97119141 C19.61450054 39.21742942 19.61450054 39.21742942 13 38 C13 44.93 13 51.86 13 59 C8.71 59 4.42 59 0 59 C0 39.53 0 20.06 0 0 Z " fill="#F5F5F5" transform="translate(489,675)"/>
<path d="M0 0 C4.95 0 9.9 0 15 0 C19.70033629 10.64530991 23.87056088 21.42363652 27.86132812 32.35351562 C28.88699006 35.15778208 29.92371684 37.95780368 30.9609375 40.7578125 C31.61785665 42.54923393 32.27413106 44.34089195 32.9296875 46.1328125 C33.23897186 46.96507355 33.54825623 47.79733459 33.86691284 48.65481567 C34.14785797 49.4301767 34.4288031 50.20553772 34.71826172 51.00439453 C34.96663788 51.68164581 35.21501404 52.35889709 35.47091675 53.05667114 C36 55 36 55 36 59 C31.71 59 27.42 59 23 59 C19 49.25 19 49.25 19 47 C11.08 47 3.16 47 -5 47 C-5.99 50.63 -6.98 54.26 -8 58 C-9 59 -9 59 -12.16015625 59.09765625 C-13.44792969 59.08605469 -14.73570312 59.07445312 -16.0625 59.0625 C-17.35285156 59.05347656 -18.64320313 59.04445313 -19.97265625 59.03515625 C-20.97167969 59.02355469 -21.97070312 59.01195312 -23 59 C-20.9775803 52.74068908 -18.74594311 46.59310824 -16.34765625 40.46875 C-16.00625107 39.59279175 -15.66484589 38.7168335 -15.31309509 37.81433105 C-14.59564199 35.97524236 -13.87708576 34.13658366 -13.1574707 32.29833984 C-12.06592152 29.50874413 -10.97901493 26.71737141 -9.89257812 23.92578125 C-9.19038194 22.12749568 -8.48791689 20.32931506 -7.78515625 18.53125 C-7.46523209 17.70911011 -7.14530792 16.88697021 -6.81568909 16.03991699 C-4.69026293 10.62187871 -2.39573683 5.30425355 0 0 Z " fill="#F4F4F4" transform="translate(561,675)"/>
<path d="M0 0 C0.99 0.33 1.98 0.66 3 1 C1.9171875 1.928125 1.9171875 1.928125 0.8125 2.875 C-3.33336594 7.02086594 -6.84931032 12.90009794 -7.13671875 18.8125 C-7.06904297 19.8953125 -7.06904297 19.8953125 -7 21 C-6.47212891 20.25556641 -6.47212891 20.25556641 -5.93359375 19.49609375 C-0.66233118 12.24294655 5.01614807 4.57770964 14 2 C23.43308547 0.76516965 29.31722032 2.87814688 37 8 C36.67 8.66 36.34 9.32 36 10 C35.01 9.67 34.02 9.34 33 9 C25.00218998 8.18788304 18.25144987 7.98743037 11.77734375 13.18359375 C6.92215033 18.14549472 5.76337811 22.59630112 5.5 29.5 C5.67126222 35.4051212 6.94346947 38.99840459 10 44 C10.33 44.99 10.66 45.98 11 47 C12.69769234 48.10168984 12.69769234 48.10168984 15 49 C16.010625 49.53625 17.02125 50.0725 18.0625 50.625 C25.42313166 53.73668334 33.60493627 52.23247207 41 50 C39.20395879 54.84931125 35.29031845 57.85683235 30.75390625 60.12109375 C24.30694519 62.17863451 16.36084213 62.26416997 10.01953125 59.87890625 C7.90240045 58.69075495 5.93269036 57.46654011 4 56 C9.1431009 61.78598851 15.4420233 65.50083802 23.26171875 66.203125 C29.39936971 66.32172695 34.31775395 65.30583898 40 63 C38.59127675 66.36487781 37.00344528 68.05709457 34.0625 70.1875 C33.37285156 70.69667969 32.68320312 71.20585937 31.97265625 71.73046875 C26.38499988 75.32648522 19.36040971 74.69609634 13 74 C3.29821574 70.48913332 -4.6255665 62.13655573 -9.375 53.1875 C-14.85109475 41.18572567 -17.45978928 28.17904806 -13.11328125 15.38671875 C-10.31189847 9.38094724 -5.68876295 3.47646625 0 0 Z " fill="#F3F3F3" transform="translate(582,394)"/>
<path d="M0 0 C6.35871602 1.24072508 9.43276478 4.90394968 13 10 C18.23478951 18.32039857 18.19691169 28.50124083 17 38 C13.88016601 50.69175017 6.3892466 61.97845017 -4.2421875 69.609375 C-11.11823776 73.62228302 -18.18965009 74.32803809 -26 73 C-30.88486914 70.68767991 -33.88395339 67.33045752 -37 63 C-35.98679687 63.23783203 -35.98679687 63.23783203 -34.953125 63.48046875 C-25.5770443 65.12996443 -16.24237606 65.08279857 -8 60 C-7.38125 59.6184375 -6.7625 59.236875 -6.125 58.84375 C-4.72354643 57.93540046 -3.35664655 56.97400265 -2 56 C-5.04185381 56.9063334 -5.04185381 56.9063334 -7.75 58.5625 C-13.80420203 61.13875618 -20.59352036 60.84331579 -27 60 C-32.45746465 57.76942862 -36.57787946 54.49013988 -39 49 C-37.741875 49.33 -36.48375 49.66 -35.1875 50 C-26.68844935 51.82789629 -19.49102801 52.27316443 -11.94140625 47.4921875 C-7.53376512 44.10442309 -4.76198932 40.30895043 -3 35 C-2.12241653 27.78534009 -2.12381085 21.54838233 -6.5703125 15.58203125 C-8.5457516 13.39609454 -10.54788484 11.63474344 -13 10 C-13.52980469 9.6390625 -14.05960937 9.278125 -14.60546875 8.90625 C-18.27949145 7.51575528 -21.8598749 7.79113329 -25.75 7.875 C-26.93916016 7.88853516 -26.93916016 7.88853516 -28.15234375 7.90234375 C-30.10169281 7.92582988 -32.05088575 7.96169863 -34 8 C-29.38051326 3.2530115 -25.59875845 0.85350232 -18.875 0.4375 C-11.00400248 0.69451216 -4.37865609 3.95269121 1.4296875 9.19140625 C5.06697973 13.12847531 7.96391386 17.03704003 10 22 C9.07805283 12.96491777 5.55925821 6.92658385 0 0 Z " fill="#F4F3F3" transform="translate(440,395)"/>
<path d="M0 0 C5.02025726 -0.96388939 10.12267201 -1.8774959 15 0 C19.57897417 4.16270379 22.71426991 10.29921679 25 16 C25 16.66 25 17.32 25 18 C25.66 18 26.32 18 27 18 C27.26425781 17.31550781 27.52851563 16.63101563 27.80078125 15.92578125 C32.45919741 4.56045975 32.45919741 4.56045975 37 0 C42.21942954 -1.13993608 46.7538206 -0.79922264 52 0 C51.61070312 0.6084375 51.22140625 1.216875 50.8203125 1.84375 C49.61735733 3.72856455 48.42000819 5.61696233 47.2265625 7.5078125 C45.60705594 10.06594752 43.94720338 12.59425738 42.2734375 15.1171875 C41.34868864 16.53628263 40.42420788 17.9555525 39.5 19.375 C39.04254395 20.05240234 38.58508789 20.72980469 38.11376953 21.42773438 C37.69466309 22.07806641 37.27555664 22.72839844 36.84375 23.3984375 C36.46412109 23.97255371 36.08449219 24.54666992 35.69335938 25.13818359 C34.70801502 27.78404137 35.17420314 29.32417394 36 32 C37.24032957 34.37403315 37.24032957 34.37403315 38.8359375 36.6875 C39.40570313 37.55117188 39.97546875 38.41484375 40.5625 39.3046875 C41.160625 40.19414063 41.75875 41.08359375 42.375 42 C43.55013421 43.77039871 44.72463344 45.5412191 45.8984375 47.3125 C46.42099121 48.09238281 46.94354492 48.87226562 47.48193359 49.67578125 C52 56.59311676 52 56.59311676 52 59 C46.98943857 60.02215453 41.84486551 61.01848995 37 59 C32.79455081 54.73083188 30.37175056 49.00164265 28.02050781 43.56054688 C27.68374023 43.04556641 27.34697266 42.53058594 27 42 C26.01 42 25.02 42 24 42 C22.17222981 44.2841977 22.17222981 44.2841977 20.5 47.1875 C19.9121875 48.15042969 19.324375 49.11335937 18.71875 50.10546875 C16.96006087 52.93007859 16.96006087 52.93007859 15.76171875 55.84375 C14 58 14 58 10.42578125 58.48828125 C9.05383624 58.45514248 7.6823247 58.39563595 6.3125 58.3125 C5.61060547 58.28994141 4.90871094 58.26738281 4.18554688 58.24414062 C2.4561167 58.18531647 0.72778562 58.09563389 -1 58 C4.13511833 47.77480824 10.57084974 38.44096228 17 29 C13.134416 21.30145296 8.60016708 14.31492749 3.6081543 7.30859375 C0 2.20093866 0 2.20093866 0 0 Z " fill="#F6F6F6" transform="translate(404,675)"/>
<path d="M0 0 C0.33 0.66 0.66 1.32 1 2 C-1.6159665 0.7270761 -4.11168881 -0.63655467 -6.58203125 -2.171875 C-20.4672129 -10.66956651 -34.16263415 -16.1924103 -50 -20 C-50.83144531 -20.21527344 -51.66289063 -20.43054688 -52.51953125 -20.65234375 C-72.85941288 -25.6731794 -98.71813474 -25.21835491 -119 -20 C-119.6703125 -19.83902832 -120.340625 -19.67805664 -121.03125 -19.51220703 C-137.16289484 -15.59591919 -152.39725684 -8.50663623 -166 1 C-166.33 0.34 -166.66 -0.32 -167 -1 C-119.80464591 -41.75457636 -46.77412267 -40.23508698 0 0 Z " fill="#1E1E1E" transform="translate(596,494)"/>
<path d="M0 0 C4.29 0 8.58 0 13 0 C13 19.47 13 38.94 13 59 C8.71 59 4.42 59 0 59 C0 39.53 0 20.06 0 0 Z " fill="#F4F4F5" transform="translate(605,675)"/>
<path d="M0 0 C13.18436015 -0.49287328 13.18436015 -0.49287328 16.921875 1.765625 C19.10585321 4.1138121 19.66650917 4.86748866 19.5625 8 C19.37020003 11.0372083 19.07086344 11.90470089 17.1875 14.4375 C11.99331132 18.14763477 6.12667344 17.06587821 0 17 C0 11.39 0 5.78 0 0 Z " fill="#131314" transform="translate(502,686)"/>
<path d="M0 0 C3.08116857 1.48244903 5.12063772 3.132695 7 6 C8.17696571 10.87600081 7.63493618 15.40321138 5.375 19.875 C2.01595395 24.29479743 -1.53251074 26.95712705 -7 28 C-8.58211573 28.06548492 -10.16670081 28.08578381 -11.75 28.0625 C-12.54921875 28.05347656 -13.3484375 28.04445313 -14.171875 28.03515625 C-14.77515625 28.02355469 -15.3784375 28.01195312 -16 28 C-16.33 27.01 -16.66 26.02 -17 25 C-16.25234375 24.73445313 -15.5046875 24.46890625 -14.734375 24.1953125 C-13.74953125 23.84210938 -12.7646875 23.48890625 -11.75 23.125 C-10.77546875 22.77695312 -9.8009375 22.42890625 -8.796875 22.0703125 C-3.7137865 20.12510824 -1.43238925 18.88476434 1.25 13.88671875 C2.31578288 11.2056087 2.27721403 8.84144377 2 6 C-6.56958443 5.31443325 -10.39447302 7.78043523 -16.875 13.25 C-17.91953202 14.16340029 -18.96224083 15.07891198 -20 16 C-19.66118934 10.57902943 -16.4744988 6.91516694 -13 3 C-9.1055792 -0.27951225 -4.9626169 -1.11424794 0 0 Z " fill="#171818" transform="translate(550,429)"/>
<path d="M0 0 C6.40809135 1.3768389 10.39544134 5.09898147 13.9453125 10.41796875 C14.8203125 13.35546875 14.8203125 13.35546875 14.9453125 15.41796875 C14.50960938 15.01964844 14.07390625 14.62132812 13.625 14.2109375 C8.79194306 9.91139983 4.82155007 6.60657449 -1.8671875 6.16796875 C-4.91286402 6.05959449 -4.91286402 6.05959449 -6.0546875 7.41796875 C-6.47812652 11.05954435 -6.18405881 13.14235161 -4.6171875 16.48046875 C0.01888218 21.79498766 6.21515563 24.51971938 12.9453125 26.41796875 C10.50623506 28.85704619 9.68662308 28.76688163 6.3203125 28.85546875 C0.7413925 28.75051078 -2.8291332 26.97150719 -7.0546875 23.41796875 C-8.9296875 21.35546875 -8.9296875 21.35546875 -10.0546875 19.41796875 C-10.4465625 18.84046875 -10.8384375 18.26296875 -11.2421875 17.66796875 C-12.50258454 14.1776385 -12.80363452 11.02227627 -12.0546875 7.41796875 C-9.32527296 2.08958963 -6.08061225 -0.61268526 0 0 Z " fill="#171717" transform="translate(479.0546875,428.58203125)"/>
<path d="M0 0 C4.83628305 0.99043705 9.47618873 1.95698846 14 4 C12.80680138 13.65922693 7.15931733 22.57772801 -0.1875 28.875 C-2 30 -2 30 -4 30 C-3.87882813 29.175 -3.75765625 28.35 -3.6328125 27.5 C-2.30470865 18.34629961 -1.12080392 9.18105342 0 0 Z " fill="#F1F1F1" transform="translate(549,492)"/>
<path d="M0 0 C7.03852556 0.41595103 13.19652964 1.71363236 19.8125 4.125 C21.11670898 4.59413818 21.11670898 4.59413818 22.44726562 5.07275391 C37.09033917 10.48656631 49.20135657 18.84005705 61 29 C57.30645278 29 56.21202584 28.00070728 53.1875 25.9375 C33.91757225 13.42718041 11.96444487 6.21972326 -11 5 C-11 4.67 -11 4.34 -11 4 C-10.28972656 3.87882812 -9.57945312 3.75765625 -8.84765625 3.6328125 C-7.92855469 3.46523438 -7.00945313 3.29765625 -6.0625 3.125 C-5.14597656 2.96257812 -4.22945312 2.80015625 -3.28515625 2.6328125 C-2.53105469 2.42398437 -1.77695312 2.21515625 -1 2 C-0.67 1.34 -0.34 0.68 0 0 Z " fill="#1D1D1D" transform="translate(536,466)"/>
<path d="M0 0 C4.80271126 0.48519338 7.54574334 1.68666958 11.3125 4.6875 C12.60607422 5.68330078 12.60607422 5.68330078 13.92578125 6.69921875 C16.41878344 9.46452626 16.7225852 11.34126514 17 15 C11.98881911 19.08806862 9.62895623 20.57146174 3 20 C0.63502561 18.13291495 -0.66030715 16.67938569 -2 14 C-2.12176503 12.19051505 -2.17545792 10.37603729 -2.1875 8.5625 C-2.20167969 7.59441406 -2.21585937 6.62632812 -2.23046875 5.62890625 C-2 3 -2 3 0 0 Z " fill="#F3F2F2" transform="translate(397,415)"/>
<path d="M0 0 C2.48004485 3.72006727 2.53775668 6.68979871 2 11 C0.43564712 15.0226217 -0.38723663 16.59149109 -4 19 C-8.83034153 19.35277775 -12.22933072 18.57029527 -16.125 15.6875 C-18 13 -18 13 -17.828125 11.05859375 C-16.82416677 8.56290512 -15.56320089 7.23142026 -13.625 5.375 C-13.01914062 4.78460938 -12.41328125 4.19421875 -11.7890625 3.5859375 C-7.78343171 0.03509449 -5.29424253 -0.48129478 0 0 Z " fill="#F2F2F1" transform="translate(628,416)"/>
<path d="M0 0 C0.48212636 3.14538695 0.96014325 6.29138596 1.4375 9.4375 C1.57220703 10.31599609 1.70691406 11.19449219 1.84570312 12.09960938 C2.69657287 17.72365089 3.40723344 23.34282007 4 29 C-4.29171543 24.51526348 -9.12621235 16.83197353 -12.50390625 8.2265625 C-13.06357661 5.71465615 -13.00168233 4.36479644 -12 2 C-7.89902748 0.09257092 -4.45918676 -0.0748395 0 0 Z " fill="#F2F1F2" transform="translate(475,493)"/>
<path d="M0 0 C8.25 0 16.5 0 25 0 C25 2.97 25 5.94 25 9 C24 10 24 10 21.68334961 10.11352539 C20.68311768 10.10828857 19.68288574 10.10305176 18.65234375 10.09765625 C17.57275391 10.09443359 16.49316406 10.09121094 15.38085938 10.08789062 C14.24455078 10.07951172 13.10824219 10.07113281 11.9375 10.0625 C10.79732422 10.05798828 9.65714844 10.05347656 8.48242188 10.04882812 C5.65489649 10.03699747 2.8274736 10.0205141 0 10 C0 6.7 0 3.4 0 0 Z " fill="#EFEFF0" transform="translate(456,701)"/>
<path d="M0 0 C1.30646484 -0.00257813 2.61292969 -0.00515625 3.95898438 -0.0078125 C4.64323486 -0.00362305 5.32748535 0.00056641 6.0324707 0.00488281 C8.08901367 0.01546001 10.14465839 0.00505463 12.20117188 -0.0078125 C19.3050777 0.0061099 25.70598115 0.3574942 32.55859375 2.265625 C32.55859375 3.255625 32.55859375 4.245625 32.55859375 5.265625 C29.74665574 6.06384316 27.2603609 6.38816132 24.34082031 6.37915039 C23.52027161 6.37907486 22.6997229 6.37899933 21.85430908 6.37892151 C20.97812927 6.37376022 20.10194946 6.36859894 19.19921875 6.36328125 C17.84265167 6.36115883 17.84265167 6.36115883 16.4586792 6.35899353 C13.57528348 6.35340411 10.69196593 6.34085353 7.80859375 6.328125 C5.85156362 6.32310863 3.89453228 6.31854596 1.9375 6.31445312 C-2.85549878 6.30343813 -7.64843927 6.28618074 -12.44140625 6.265625 C-12.77140625 4.945625 -13.10140625 3.625625 -13.44140625 2.265625 C-12.65765625 2.306875 -11.87390625 2.348125 -11.06640625 2.390625 C-6.9155128 2.19296341 -4.81890166 0.00914217 0 0 Z " fill="#0F0F10" transform="translate(503.44140625,463.734375)"/>
<path d="M0 0 C2.05264866 2.05264866 2.56528526 3.13767959 3.5078125 5.80859375 C3.77207031 6.55560547 4.03632812 7.30261719 4.30859375 8.07226562 C4.57800781 8.85279297 4.84742188 9.63332031 5.125 10.4375 C5.40214844 11.21416016 5.67929687 11.99082031 5.96484375 12.79101562 C8 18.61076047 8 18.61076047 8 22 C3.05 22 -1.9 22 -7 22 C-5.875 14.125 -5.875 14.125 -4.58984375 11.03515625 C-4.18862305 10.05385742 -4.18862305 10.05385742 -3.77929688 9.05273438 C-3.50150391 8.39595703 -3.22371094 7.73917969 -2.9375 7.0625 C-2.65583984 6.37865234 -2.37417969 5.69480469 -2.08398438 4.99023438 C-1.3964595 3.32386054 -0.69923825 1.66149273 0 0 Z " fill="#202121" transform="translate(568,690)"/>
<path d="M0 0 C1.9375 0.3125 1.9375 0.3125 4 1 C5 4 5 4 3.4375 7.4375 C0.94658577 11.51432502 -2.27553356 14.13875338 -6.890625 15.59765625 C-9.22674443 16.0432494 -11.37358992 16.09744721 -13.75 16.0625 C-14.54921875 16.05347656 -15.3484375 16.04445313 -16.171875 16.03515625 C-16.77515625 16.02355469 -17.3784375 16.01195312 -18 16 C-18.33 15.01 -18.66 14.02 -19 13 C-18.25234375 12.73445313 -17.5046875 12.46890625 -16.734375 12.1953125 C-15.74953125 11.84210938 -14.7646875 11.48890625 -13.75 11.125 C-12.28820312 10.60292969 -12.28820312 10.60292969 -10.796875 10.0703125 C-5.21084833 7.99712863 -5.21084833 7.99712863 -1.75 3.375 C-0.88375 1.704375 -0.88375 1.704375 0 0 Z " fill="#1B1B1B" transform="translate(552,441)"/>
<path d="M0 0 C5.42643643 1.84498839 8.86762768 5.30657656 12 10 C12.875 12.9375 12.875 12.9375 13 15 C12.56429688 14.60167969 12.12859375 14.20335937 11.6796875 13.79296875 C6.88916463 9.53126984 2.89761232 6.29467244 -3.6875 5.625 C-6.96645531 5.70580897 -6.96645531 5.70580897 -8.9375 7.5 C-9.288125 7.995 -9.63875 8.49 -10 9 C-10.33 8.67 -10.66 8.34 -11 8 C-11.33 9.98 -11.66 11.96 -12 14 C-12.33 14 -12.66 14 -13 14 C-13.46788961 9.22752594 -13.68514232 6.04912418 -11 1.9375 C-7.23570681 -0.49360602 -4.30483606 -0.75568128 0 0 Z " fill="#1B1C1B" transform="translate(481,429)"/>
<path d="M0 0 C13.48783022 3.8215519 24.49439613 11.96308255 35 21 C35.495 21.99 35.495 21.99 36 23 C33.3840335 21.7270761 30.88831119 20.36344533 28.41796875 18.828125 C17.05951176 11.88069304 5.88551561 6.54105773 -7 3 C-4.92446352 2.4465236 -3.15634036 2 -1 2 C-0.67 1.34 -0.34 0.68 0 0 Z " fill="#1F1F1F" transform="translate(561,473)"/>
<path d="M0 0 C0 4.01144399 -1.27537658 4.73912132 -4.0625 7.5625 C-13.60364221 16.80674669 -24.9707413 23.48938987 -37 29 C-36.97265625 26.75390625 -36.97265625 26.75390625 -36 24 C-33.47327498 22.41965938 -31.12498778 21.17495079 -28.4375 19.9375 C-21.86179721 16.7022823 -15.95163316 13.07350775 -10.125 8.625 C-9.4539624 8.11316162 -8.7829248 7.60132324 -8.09155273 7.07397461 C-5.2219569 4.84576134 -2.53568426 2.60805077 0 0 Z " fill="#1F1F1F" transform="translate(585,546)"/>
<path d="M0 0 C6.99942496 5.16158712 6.99942496 5.16158712 10.265625 7.8984375 C18.2450613 14.58319705 27.19858758 20.35894998 37 24 C36.01 24.99 35.02 25.98 34 27 C21.8628028 21.39347743 12.73789663 14.06995426 3 5 C2.40960938 4.45859375 1.81921875 3.9171875 1.2109375 3.359375 C0 2 0 2 0 0 Z " fill="#1C1D1B" transform="translate(438,546)"/>
<path d="M0 0 C-1.0519822 3.34246826 -2.18275152 4.11314242 -5.23046875 6 C-6.54349578 6.67837522 -7.86280881 7.34469383 -9.1875 8 C-10.49402662 8.66561356 -11.80001876 9.33227733 -13.10546875 10 C-13.74661621 10.32484375 -14.38776367 10.6496875 -15.04833984 10.984375 C-18.08625809 12.56527817 -21.03919084 14.27958171 -24 16 C-24 15.34 -24 14.68 -24 14 C-6.77123443 -2.25707814 -6.77123443 -2.25707814 0 0 Z " fill="#171717" transform="translate(453,479)"/>
<path d="M0 0 C4.571279 0.54855348 8.67435795 1.41744803 13 3 C12.67 4.32 12.34 5.64 12 7 C9.76980273 6.71632132 7.54086546 6.42272612 5.3125 6.125 C4.07113281 5.96257812 2.82976563 5.80015625 1.55078125 5.6328125 C-1.57795295 5.07521631 -4.12148102 4.30991877 -7 3 C-7 2.67 -7 2.34 -7 2 C-4.69 2 -2.38 2 0 2 C0 1.34 0 0.68 0 0 Z " fill="#141414" transform="translate(548,469)"/>
<path d="M0 0 C-0.05859375 2.32421875 -0.05859375 2.32421875 -1 5 C-3.43951265 6.22126406 -5.48689482 7.04460207 -8.0625 7.8125 C-8.72572266 8.02841797 -9.38894531 8.24433594 -10.07226562 8.46679688 C-11.70888468 8.99663758 -13.35377006 9.5008206 -15 10 C-15 8.35 -15 6.7 -15 5 C-13.25447527 4.15733289 -11.5033792 3.32619962 -9.75 2.5 C-8.77546875 2.0359375 -7.8009375 1.571875 -6.796875 1.09375 C-4 0 -4 0 0 0 Z " fill="#1C1C1D" transform="translate(467,472)"/>
<path d="M0 0 C0 0.33 0 0.66 0 1 C-1.11375 1.103125 -2.2275 1.20625 -3.375 1.3125 C-4.57125 1.539375 -5.7675 1.76625 -7 2 C-9.18490007 4.67642489 -9.18490007 4.67642489 -9 7 C-10.64453125 8.65625 -10.64453125 8.65625 -12.8125 10.5 C-13.52019531 11.1084375 -14.22789062 11.716875 -14.95703125 12.34375 C-17 14 -17 14 -20 16 C-19.66118934 10.57902943 -16.4744988 6.91516694 -13 3 C-8.77557858 -0.55740751 -5.30052447 -0.26951819 0 0 Z " fill="#292A2B" transform="translate(550,429)"/>
<path d="M0 0 C-1.32 0.99 -2.64 1.98 -4 3 C-3.01 3.33 -2.02 3.66 -1 4 C-1 7.3 -1 10.6 -1 14 C-1.33 14 -1.66 14 -2 14 C-2 11.03 -2 8.06 -2 5 C-3.85625 5.309375 -3.85625 5.309375 -5.75 5.625 C-9.11909835 6.06107124 -11.12841921 6.03403639 -14 4 C-14 3.34 -14 2.68 -14 2 C-12.42085985 1.46658816 -10.83645613 0.94874237 -9.25 0.4375 C-8.36828125 0.14746094 -7.4865625 -0.14257812 -6.578125 -0.44140625 C-3.92165684 -1.01697435 -2.52968894 -0.89248371 0 0 Z " fill="#313030" transform="translate(477,488)"/>
<path d="M0 0 C0.66 0 1.32 0 2 0 C2.28994872 9.13338455 1.1741788 17.96301675 0 27 C-2 25 -2 25 -2.23046875 22.8984375 C-1.99358974 8.98717949 -1.99358974 8.98717949 0 5 C0.0396713 3.33380554 0.04384447 1.66608987 0 0 Z " fill="#212225" transform="translate(513,577)"/>
<path d="M0 0 C4.34051228 5.29816112 6.78803884 11.87357291 7.25 18.6875 C7.12625 19.8321875 7.12625 19.8321875 7 21 C4.95492097 17.93238146 3.08083901 14.82530659 1.25 11.625 C0.59515625 10.50351562 -0.0596875 9.38203125 -0.734375 8.2265625 C-2 5 -2 5 -1.203125 2.0859375 C-0.80609375 1.39757812 -0.4090625 0.70921875 0 0 Z " fill="#323332" transform="translate(484,391)"/>
<path d="M0 0 C0.66 0.33 1.32 0.66 2 1 C1.38125 1.2475 0.7625 1.495 0.125 1.75 C-2.42139034 3.24787667 -2.82683417 4.34082412 -4 7 C-5.95554526 10.02220631 -7.54824509 11.81345925 -11 13 C-11.99 12.67 -12.98 12.34 -14 12 C-12.61068357 10.55620057 -11.21323422 9.12022488 -9.8125 7.6875 C-9.03519531 6.88699219 -8.25789063 6.08648438 -7.45703125 5.26171875 C-5.07541876 3.06942363 -2.90201322 1.42905861 0 0 Z " fill="#222223" transform="translate(370,660)"/>
<path d="M0 0 C-0.34879632 3.25543229 -1.02133261 4.01873107 -3.5625 6.25 C-4.366875 6.8275 -5.17125 7.405 -6 8 C-6.33 7.67 -6.66 7.34 -7 7 C-7.33 8.98 -7.66 10.96 -8 13 C-8.33 13 -8.66 13 -9 13 C-9.61989796 4.94132653 -9.61989796 4.94132653 -7.3125 1.4375 C-4.62515045 -0.23301458 -3.10843835 -0.34538204 0 0 Z " fill="#0E0F10" transform="translate(477,430)"/>
<path d="M0 0 C2.33096248 6.47489578 -0.41350165 12.4223754 -3.16015625 18.27734375 C-3.43730469 18.84582031 -3.71445312 19.41429687 -4 20 C-5.60011528 15.96932986 -4.34294927 12.89843242 -3.125 8.875 C-2.75632812 7.63492187 -2.38765625 6.39484375 -2.0078125 5.1171875 C-1 2 -1 2 0 0 Z " fill="#393A3B" transform="translate(538,393)"/>
<path d="M0 0 C-0.45224761 5.91492272 -1.1582605 11.35199888 -3 17 C-3.33 17 -3.66 17 -4 17 C-4 11.72 -4 6.44 -4 1 C-1 0 -1 0 0 0 Z " fill="#1A1A1B" transform="translate(529,363)"/>
<path d="M0 0 C0.66 0.33 1.32 0.66 2 1 C-1.3 3.64 -4.6 6.28 -8 9 C-9.32 8.01 -10.64 7.02 -12 6 C-10.04669132 4.96958487 -8.08718472 3.9509107 -6.125 2.9375 C-5.03445313 2.36902344 -3.94390625 1.80054688 -2.8203125 1.21484375 C-1.42425781 0.61349609 -1.42425781 0.61349609 0 0 Z " fill="#393938" transform="translate(655,549)"/>
<path d="M0 0 C3.57350549 1.35171729 6.31367763 3.72957912 9.25 6.125 C10.14203125 6.84945313 11.0340625 7.57390625 11.953125 8.3203125 C12.62859375 8.87460937 13.3040625 9.42890625 14 10 C10.16303788 10 8.63021322 8.70812847 5.4375 6.625 C4.46683594 5.99851562 3.49617187 5.37203125 2.49609375 4.7265625 C0 3 0 3 -2 1 C-1.34 0.67 -0.68 0.34 0 0 Z " fill="#373736" transform="translate(583,485)"/>
<path d="M0 0 C4.9723422 1.49170266 9.41845739 3.60457417 14 6 C12.68 6.99 11.36 7.98 10 9 C8.8944811 8.06409496 7.79064547 7.12620142 6.6875 6.1875 C6.07261719 5.66542969 5.45773437 5.14335938 4.82421875 4.60546875 C3.14575321 3.12827531 1.56117966 1.59960869 0 0 Z " fill="#2D2E2F" transform="translate(367,549)"/>
<path d="M0 0 C4.69159716 3.38772897 9.0299782 6.78185183 13 11 C12.01 11.33 11.02 11.66 10 12 C8.32737283 10.38113585 6.66204463 8.7547271 5 7.125 C4.071875 6.22007812 3.14375 5.31515625 2.1875 4.3828125 C0 2 0 2 0 0 Z " fill="#3F403E" transform="translate(438,546)"/>
<path d="M0 0 C0 3 0 3 -2.1875 5.48046875 C-3.115625 6.37378906 -4.04375 7.26710938 -5 8.1875 C-5.928125 9.08855469 -6.85625 9.98960937 -7.8125 10.91796875 C-8.534375 11.60503906 -9.25625 12.29210937 -10 13 C-10.33 11.68 -10.66 10.36 -11 9 C-10.37351562 8.51789062 -9.74703125 8.03578125 -9.1015625 7.5390625 C-7.87566406 6.59160156 -7.87566406 6.59160156 -6.625 5.625 C-5.81289063 4.99851562 -5.00078125 4.37203125 -4.1640625 3.7265625 C-1.95776805 2.03226506 -1.95776805 2.03226506 0 0 Z " fill="#3B3A39" transform="translate(585,546)"/>
<path d="M0 0 C0.66 0.33 1.32 0.66 2 1 C0.67708855 4.96873434 -0.91149738 5.29905037 -4.5625 7.1875 C-5.57441406 7.71730469 -6.58632813 8.24710937 -7.62890625 8.79296875 C-8.41136719 9.19128906 -9.19382812 9.58960938 -10 10 C-10 9.34 -10 8.68 -10 8 C-8.38542921 6.56418526 -6.70780925 5.19855217 -5 3.875 C-4.071875 3.15054687 -3.14375 2.42609375 -2.1875 1.6796875 C-1.465625 1.12539063 -0.74375 0.57109375 0 0 Z " fill="#2E2F2F" transform="translate(439,485)"/>
<path d="M0 0 C0.66 0 1.32 0 2 0 C1.67 1.65 1.34 3.3 1 5 C-1.31 5.33 -3.62 5.66 -6 6 C-5.67 5.01 -5.34 4.02 -5 3 C-3.35 2.67 -1.7 2.34 0 2 C0 1.34 0 0.68 0 0 Z " fill="#0F0F10" transform="translate(465,472)"/>
<path d="M0 0 C0.66 0 1.32 0 2 0 C2.8723412 2.99480917 3.10829766 5.63575911 3.0625 8.75 C3.05347656 9.54921875 3.04445313 10.3484375 3.03515625 11.171875 C3.01775391 12.07679688 3.01775391 12.07679688 3 13 C-0.09902323 9.90097677 0.0101421 7.60852615 -0.0625 3.25 C-0.041875 2.1775 -0.02125 1.105 0 0 Z " fill="#353637" transform="translate(497,369)"/>
<path d="M0 0 C-3.60051153 2.40034102 -6.96144535 4.32187705 -11.375 3.625 C-11.91125 3.41875 -12.4475 3.2125 -13 3 C-8.30609874 -0.77801809 -5.8692391 -1.40861738 0 0 Z " fill="#343335" transform="translate(426,637)"/>
<path d="M0 0 C0.78375 0.04125 1.5675 0.0825 2.375 0.125 C2.705 1.115 3.035 2.105 3.375 3.125 C0.735 3.785 -1.905 4.445 -4.625 5.125 C-4.625 1.22254579 -3.95783286 0.18846823 0 0 Z " fill="#0A0B0B" transform="translate(545.625,429.875)"/>
<path d="M0 0 C0.66 0.33 1.32 0.66 2 1 C1.67 1.33 1.34 1.66 1 2 C3.31 2.33 5.62 2.66 8 3 C8 3.33 8 3.66 8 4 C3.38 4.33 -1.24 4.66 -6 5 C-2 1 -2 1 0 0 Z " fill="#C8C6C6" transform="translate(412,398)"/>
<path d="M0 0 C0 3 0 3 -1.53125 4.60546875 C-2.1809375 5.12753906 -2.830625 5.64960937 -3.5 6.1875 C-4.1496875 6.71730469 -4.799375 7.24710938 -5.46875 7.79296875 C-5.9740625 8.19128906 -6.479375 8.58960938 -7 9 C-7 6 -7 6 -5.46875 4.39453125 C-4.49421875 3.61142578 -4.49421875 3.61142578 -3.5 2.8125 C-2.8503125 2.28269531 -2.200625 1.75289062 -1.53125 1.20703125 C-1.0259375 0.80871094 -0.520625 0.41039062 0 0 Z " fill="#1B1C1B" transform="translate(391,671)"/>
<path d="M0 0 C3.93673644 1.31224548 6.22719294 2.91910327 9 6 C6.75 6.375 6.75 6.375 4 6 C1.6875 3 1.6875 3 0 0 Z " fill="#242628" transform="translate(654,661)"/>
<path d="M0 0 C2 1 4 2 6 3 C5.67 3.66 5.34 4.32 5 5 C0.71 4.34 -3.58 3.68 -8 3 C-8 2.67 -8 2.34 -8 2 C-6.865625 1.855625 -5.73125 1.71125 -4.5625 1.5625 C-1.19222799 1.38828522 -1.19222799 1.38828522 0 0 Z " fill="#ABAAAB" transform="translate(613,399)"/>
<path d="M0 0 C1.65 0.33 3.3 0.66 5 1 C4.67 1.66 4.34 2.32 4 3 C-3.3625 4.425 -3.3625 4.425 -7 2 C-4.69 2 -2.38 2 0 2 C0 1.34 0 0.68 0 0 Z " fill="#0D0D0D" transform="translate(548,469)"/>
<path d="M0 0 C-0.33 0.66 -0.66 1.32 -1 2 C0.32 2.66 1.64 3.32 3 4 C0.03 4 -2.94 4 -6 4 C-6.33 3.01 -6.66 2.02 -7 1 C-4.50935112 0.31292445 -2.62113708 0 0 0 Z " fill="#515052" transform="translate(540,453)"/>
<path d="M0 0 C0 0.99 0 1.98 0 3 C-1.75 4.38671875 -1.75 4.38671875 -4 5.6875 C-4.7425 6.12449219 -5.485 6.56148438 -6.25 7.01171875 C-6.8275 7.33785156 -7.405 7.66398437 -8 8 C-8 7.34 -8 6.68 -8 6 C-8.66 5.67 -9.32 5.34 -10 5 C-6.7 3.35 -3.4 1.7 0 0 Z " fill="#3D3D3E" transform="translate(438,449)"/>
<path d="M0 0 C1.32 0.33 2.64 0.66 4 1 C4 2.98 4 4.96 4 7 C2.68 6.67 1.36 6.34 0 6 C0 4.02 0 2.04 0 0 Z " fill="#060606" transform="translate(553,436)"/>
<path d="M0 0 C3.465 1.98 3.465 1.98 7 4 C3.18510326 5.46726798 0.70988378 4.43336419 -3 3 C-2.01 2.67 -1.02 2.34 0 2 C0 1.34 0 0.68 0 0 Z " fill="#373738" transform="translate(604,636)"/>
<path d="M0 0 C-2 2 -2 2 -4.3828125 2.1953125 C-5.28773438 2.17210937 -6.19265625 2.14890625 -7.125 2.125 C-8.49011719 2.09792969 -8.49011719 2.09792969 -9.8828125 2.0703125 C-10.58148438 2.04710937 -11.28015625 2.02390625 -12 2 C-12 1.67 -12 1.34 -12 1 C-7.53763531 -0.80619523 -4.68965706 -1.11658501 0 0 Z " fill="#4D4C4C" transform="translate(492,455)"/>
<path d="M0 0 C0.66 0.33 1.32 0.66 2 1 C2 1.99 2 2.98 2 4 C0.1875 5.0625 0.1875 5.0625 -2 6 C-2.99 5.67 -3.98 5.34 -5 5 C-3.35 3.35 -1.7 1.7 0 0 Z " fill="#1E1E1E" transform="translate(445,481)"/>
<path d="M0 0 C0.33 0.99 0.66 1.98 1 3 C-0.65 3.66 -2.3 4.32 -4 5 C-4.66 4.01 -5.32 3.02 -6 2 C-2.25 0 -2.25 0 0 0 Z " fill="#252626" transform="translate(559,566)"/>
<path d="M0 0 C0 0.99 0 1.98 0 3 C-3 5 -3 5 -6 5 C-6 4.01 -6 3.02 -6 2 C-2.25 0 -2.25 0 0 0 Z " fill="#171818" transform="translate(565,563)"/>
<path d="M0 0 C1.65 0.33 3.3 0.66 5 1 C2.1913711 3.8086289 -0.11134294 3.72711179 -4 4 C-4.99 3.34 -5.98 2.68 -7 2 C-5.02 2 -3.04 2 -1 2 C-0.67 1.34 -0.34 0.68 0 0 Z " fill="#30302F" transform="translate(561,473)"/>
<path d="M0 0 C1.65 0 3.3 0 5 0 C5.33 1.32 5.66 2.64 6 4 C4.68 4.33 3.36 4.66 2 5 C2 3.68 2 2.36 2 1 C1.34 0.67 0.68 0.34 0 0 Z " fill="#171717" transform="translate(465,471)"/>
<path d="M0 0 C0.33 0 0.66 0 1 0 C1 2.31 1 4.62 1 7 C1.99 7.33 2.98 7.66 4 8 C3.34 9.32 2.68 10.64 2 12 C-0.60018816 8.09971775 -0.15085514 4.52565431 0 0 Z " fill="#424443" transform="translate(467,436)"/>
</svg>
